<svg width="510" height="580" viewBox="0 0 510 580" fill="none" xmlns="http://www.w3.org/2000/svg">
<g clip-path="url(#clip0)">
<path d="M248 501C122.079 501 20 511.297 20 524C20 536.703 122.079 547 248 547C373.921 547 476 536.703 476 524C476 511.297 373.921 501 248 501Z" fill="#F0F0F5"/>
<path d="M454.38 434.817C454.38 434.817 422.032 527.056 418.566 527.056C415.1 527.056 345.782 548.963 407.013 521.291C407.013 521.291 413.945 420.981 424.343 416.369C434.74 411.758 454.38 434.817 454.38 434.817Z" fill="#965450"/>
<path d="M430.119 501.229C440.632 473.903 454.381 434.817 454.381 434.817C454.381 434.817 434.74 411.758 424.343 416.369C417.642 419.367 412.328 462.489 409.439 492.466C416.371 495.234 423.187 498.231 430.119 501.229Z" fill="#76413B"/>
<path d="M396.962 526.249C396.962 526.249 394.305 532.36 419.721 525.903L418.566 529.362C418.566 529.362 346.938 546.196 396.962 526.249Z" fill="#051F38"/>
<path d="M434.74 395.731C434.74 395.731 484.764 479.784 482.569 482.436C480.374 485.087 452.647 552.191 470.669 487.509C470.669 487.509 398.117 417.753 401.236 406.8C404.471 395.962 434.74 395.731 434.74 395.731Z" fill="#965450"/>
<path d="M468.128 498.347C468.128 498.347 471.132 504.342 482.454 480.706L484.418 483.819C484.302 483.819 451.261 549.539 468.128 498.347Z" fill="#051F38"/>
<path d="M463.854 445.771C450.452 422.134 434.74 395.731 434.74 395.731C434.74 395.731 404.471 395.962 401.236 406.8C399.157 413.833 428.964 445.655 450.106 467.101C450.221 467.216 458.424 458.108 463.854 445.771Z" fill="#76413B"/>
<path d="M466.51 269.364C466.51 269.364 435.894 235.351 417.987 256.681C400.08 278.011 372.353 348.343 376.396 377.168C378.823 394.117 395.112 412.219 408.167 424.325L397.192 486.125C397.192 486.125 442.248 498.231 439.36 498.231C437.627 498.231 483.839 374.286 488.46 335.084C493.082 295.883 466.51 269.364 466.51 269.364Z" fill="#6633CC"/>
<path opacity="0.2" d="M443.059 276.974C451.608 276.858 460.966 275.705 469.168 272.362C467.551 270.402 466.511 269.364 466.511 269.364C466.511 269.364 435.896 235.351 417.989 256.681C415.216 260.025 412.212 264.406 409.208 269.71C419.26 275.244 431.968 277.204 443.059 276.974Z" fill="#352C38"/>
<path opacity="0.2" d="M397.193 293.461C384.485 322.401 373.741 358.374 376.398 377.053C378.708 393.886 394.883 411.873 407.937 423.979C412.559 392.618 420.992 349.035 426.076 323.9C413.483 316.752 403.085 306.49 397.193 293.461Z" fill="#352C38"/>
<path d="M378.131 201.337L359.646 237.08C359.646 237.08 327.298 219.209 322.676 219.209C318.055 219.209 296.105 219.785 306.502 224.397C306.502 224.397 301.881 227.279 307.08 228.432C307.08 228.432 302.459 232.468 308.235 233.044L321.521 232.468C321.521 232.468 348.093 256.681 361.379 260.139C374.665 263.598 396.038 218.632 396.038 218.632L378.131 201.337Z" fill="#965450"/>
<path d="M381.135 226.934C384.023 227.972 387.027 229.01 390.031 230.047C393.728 223.591 396.038 218.517 396.038 218.517L378.131 201.223L367.964 220.823C372.008 223.36 376.514 225.32 381.135 226.934Z" fill="#76413B"/>
<path d="M401.236 184.043C401.236 184.043 383.907 181.161 377.552 190.385C371.198 199.608 368.31 214.597 368.31 214.597L393.149 226.704L401.236 184.043Z" fill="#34CB79"/>
<path opacity="0.1" d="M391.648 216.673C385.294 211.715 378.015 205.489 373.279 197.994C369.813 206.065 368.195 214.482 368.195 214.482L393.034 226.588L394.536 218.748C393.612 218.172 392.572 217.48 391.648 216.673Z" fill="#161826"/>
<path d="M279.699 214.943C280.392 216.788 279.353 218.863 277.504 219.555L263.872 224.513C262.023 225.205 259.944 224.167 259.25 222.322L253.821 207.218C253.127 205.373 254.167 203.298 256.016 202.606L269.648 197.648C271.497 196.957 273.576 197.994 274.269 199.839L279.699 214.943Z" fill="#23173B"/>
<path d="M290.674 203.644L247.928 218.979C240.419 221.63 236.607 229.932 239.264 237.426L252.434 273.976C255.091 281.47 263.409 285.275 270.919 282.623L313.665 267.289C321.174 264.637 324.987 256.335 322.33 248.841L309.159 212.291C306.387 204.797 298.184 200.877 290.674 203.644ZM318.171 252.185C319.21 255.182 317.708 258.526 314.705 259.564L296.335 208.832C299.339 207.795 302.69 209.294 303.729 212.291L318.171 252.185Z" fill="#322153"/>
<path d="M276.926 199.608C277.504 201.223 276.695 203.067 275.078 203.644L255.669 210.677C254.051 211.254 252.203 210.447 251.625 208.832L250.008 204.336C249.43 202.722 250.239 200.877 251.856 200.3L271.265 193.267C272.883 192.691 274.731 193.498 275.309 195.112L276.926 199.608Z" fill="#6633CC"/>
<path d="M304.191 221.515C304.191 221.515 311.47 218.979 312.741 220.477C313.896 221.861 306.618 223.936 306.964 224.052C307.195 224.167 314.82 222.438 315.513 224.052C316.207 225.666 307.426 228.548 307.426 228.548C307.426 228.548 315.744 226.242 316.322 227.972C316.9 229.701 307.657 232.238 307.657 232.238L307.195 228.433L306.618 224.052L304.191 221.515Z" fill="#965450"/>
<path d="M314.474 219.555C314.474 219.555 308.813 215.75 308.813 214.482C308.697 213.098 323.832 219.44 323.832 219.44L314.474 219.555Z" fill="#965450"/>
<path d="M426.075 181.161C424.92 183.236 430.581 134.926 430.581 134.926L404.356 152.567C404.356 152.567 406.666 183.467 403.778 183.582C402.623 183.582 398.117 185.312 393.149 187.156C394.305 192.921 396.615 194.189 398.579 199.724C413.252 199.609 429.195 199.263 438.206 185.888C433.007 184.159 427.577 178.278 426.075 181.161Z" fill="#76413B"/>
<path d="M401.236 184.043L400.081 180.008L428.964 173.666L430.119 180.584C430.119 180.584 464.778 192.114 469.399 218.056C474.02 243.998 471.71 260.717 466.511 269.364C466.511 269.364 426.075 275.129 408.746 266.482C391.416 257.834 373.509 193.267 382.752 187.502C391.994 181.737 401.236 184.043 401.236 184.043Z" fill="#34CB79"/>
<path opacity="0.1" d="M439.015 255.874C425.151 255.067 408.168 253.453 396.615 244.921C394.42 243.307 392.456 241.577 390.608 239.617C395.807 252.415 402.276 263.253 408.746 266.482C426.076 275.129 466.511 269.364 466.511 269.364C468.822 265.559 470.555 260.14 471.363 252.992C460.966 256.105 450.106 256.566 439.015 255.874Z" fill="#161826"/>
<path d="M437.628 235.927L467.088 233.621C467.088 233.621 459.579 285.505 450.914 303.377C442.25 321.248 402.392 391.58 417.988 352.378C417.988 352.378 397.771 382.933 415.1 351.802C415.1 351.802 396.038 376.591 412.789 350.073C412.789 350.073 393.149 372.556 413.945 340.849C413.945 340.849 398.348 348.343 415.678 335.66L432.43 291.847L437.628 235.927Z" fill="#965450"/>
<path d="M466.395 237.772C466.858 235.12 467.089 233.506 467.089 233.506L437.628 235.812L437.397 238.81C446.986 238.81 456.691 238.349 466.395 237.772Z" fill="#76413B"/>
<path d="M406.782 103.911C406.782 103.911 421.455 95.3787 442.943 109.445C457.153 118.784 456.46 148.647 425.729 168.247C389.222 191.538 406.782 103.911 406.782 103.911Z" fill="#051F38"/>
<path d="M427.116 119.822C427.116 119.822 410.595 107.024 396.5 113.25C378.709 121.321 380.557 140.114 380.21 156.141C379.748 177.471 396.616 181.507 401.699 181.737C409.208 182.198 439.824 180.354 427.116 119.822Z" fill="#965450"/>
<path d="M428.733 139.769C428.733 139.769 429.426 136.54 434.972 139.077C442.019 142.42 438.207 159.254 430.35 158.793C422.379 158.447 428.733 139.769 428.733 139.769Z" fill="#965450"/>
<path d="M428.732 139.769C428.732 139.769 429.657 151.298 426.999 151.414C424.227 151.529 421.338 130.545 428.963 130.545C436.588 130.776 428.732 139.769 428.732 139.769Z" fill="#051F38"/>
<path d="M428.733 139.769C428.733 139.769 423.072 114.172 389.453 118.438C389.453 118.438 394.305 108.869 404.934 104.372C419.375 98.2611 440.979 122.82 434.971 139.077C434.971 139.077 432.199 139.423 428.733 139.769Z" fill="#34CB79"/>
<path d="M442.943 116.132C442.943 116.132 441.094 85.5782 448.488 85.5782C455.882 85.5782 447.91 111.29 447.91 111.29C447.91 111.29 454.034 74.5096 471.825 80.0439C489.617 85.5782 458.886 111.29 458.886 111.29C458.886 111.29 472.98 98.3764 477.948 102.758C482.8 107.024 457.73 115.671 457.73 115.671C457.73 115.671 476.793 110.137 479.219 119.361C481.645 128.469 442.365 127.201 442.943 116.132Z" fill="#051F38"/>
<path d="M381.134 133.889C381.134 133.889 381.134 133.658 381.365 133.197C381.596 132.736 381.827 132.159 382.405 131.583C382.983 131.006 383.676 130.315 384.6 129.853C384.831 129.738 385.062 129.623 385.409 129.508C385.64 129.392 385.987 129.277 386.218 129.277C386.564 129.277 386.795 129.162 387.142 129.162H388.066C388.644 129.162 389.221 129.392 389.799 129.623C390.377 129.853 390.839 130.084 391.301 130.43C391.763 130.776 392.11 131.122 392.456 131.468C392.803 131.814 393.034 132.159 393.149 132.505C393.265 132.621 393.38 132.851 393.38 132.967C393.496 133.082 393.496 133.312 393.611 133.428C393.727 133.774 393.843 134.004 393.843 134.235C393.958 134.696 393.958 134.927 393.958 134.927C393.958 134.927 393.727 134.811 393.265 134.696C393.034 134.581 392.803 134.465 392.572 134.35C392.341 134.235 391.994 134.12 391.647 133.889C391.301 133.774 391.07 133.543 390.723 133.428C390.377 133.312 390.03 133.197 389.683 133.082C389.337 132.967 388.99 132.851 388.644 132.736C388.297 132.736 387.951 132.621 387.604 132.621H387.142C387.026 132.621 386.795 132.621 386.564 132.621C386.218 132.621 385.871 132.736 385.524 132.736C385.178 132.851 384.831 132.851 384.485 132.967C384.138 133.082 383.791 133.082 383.445 133.197C382.752 133.428 382.174 133.543 381.827 133.658C381.481 133.889 381.134 133.889 381.134 133.889Z" fill="#051F38"/>
<path d="M390.03 165.595C390.03 165.595 408.977 166.172 410.247 165.941C411.403 165.711 399.619 174.935 390.03 165.595Z" fill="white"/>
<path d="M391.301 144.496C391.301 144.496 391.301 144.726 391.185 145.188C391.07 145.649 390.954 146.225 390.723 147.032C390.608 147.378 390.492 147.839 390.261 148.185C390.145 148.416 390.03 148.647 389.914 148.762C389.799 148.992 389.568 149.223 389.452 149.338C389.106 149.684 388.759 150.145 388.181 150.376C388.066 150.491 387.95 150.491 387.719 150.607L387.373 150.722C387.142 150.837 386.795 150.837 386.449 150.837C385.871 150.837 385.178 150.722 384.716 150.261C384.253 149.915 383.907 149.454 383.676 148.877C383.445 148.416 383.329 147.955 383.214 147.494C383.098 147.032 383.098 146.571 383.098 146.225C383.098 145.418 383.098 144.842 383.214 144.381C383.329 143.919 383.445 143.689 383.445 143.689C383.445 143.689 383.445 144.726 383.791 146.225C383.907 146.917 384.138 147.839 384.6 148.531C384.831 148.877 385.062 149.223 385.409 149.454C385.755 149.684 386.102 149.8 386.449 149.8C386.68 149.8 386.795 149.8 387.026 149.684L387.373 149.569C387.373 149.569 387.488 149.454 387.604 149.454C387.95 149.338 388.297 148.992 388.644 148.762C388.99 148.416 389.221 148.07 389.452 147.724C389.683 147.378 389.914 147.032 390.03 146.686C390.377 145.995 390.608 145.418 390.839 145.072C391.185 144.726 391.301 144.496 391.301 144.496Z" fill="#1F2733"/>
<path d="M410.363 145.995C410.363 145.995 410.363 146.225 410.248 146.686C410.132 147.148 410.017 147.724 409.786 148.531C409.67 148.877 409.555 149.338 409.323 149.684C409.208 149.915 409.092 150.145 408.977 150.261C408.861 150.491 408.63 150.722 408.515 150.837C408.168 151.183 407.822 151.644 407.244 151.875C407.128 151.99 407.013 151.99 406.782 152.106L406.435 152.221C406.204 152.336 405.858 152.336 405.511 152.336C404.933 152.336 404.24 152.221 403.778 151.76C403.316 151.414 402.969 150.953 402.738 150.376C402.507 149.915 402.392 149.454 402.276 148.992C402.161 148.531 402.161 148.07 402.161 147.724C402.161 146.917 402.161 146.341 402.276 145.879C402.392 145.418 402.507 145.188 402.507 145.188C402.507 145.188 402.507 146.225 402.854 147.724C402.969 148.416 403.2 149.338 403.663 150.03C403.894 150.376 404.125 150.722 404.471 150.953C404.818 151.183 405.164 151.298 405.511 151.298C405.742 151.298 405.858 151.298 406.089 151.183L406.435 151.068C406.435 151.068 406.551 150.953 406.666 150.953C407.013 150.837 407.359 150.491 407.706 150.261C408.053 149.915 408.284 149.569 408.515 149.223C408.746 148.877 408.977 148.531 409.092 148.185C409.439 147.494 409.67 146.917 409.901 146.571C410.248 146.225 410.363 145.995 410.363 145.995Z" fill="#1F2733"/>
<path d="M431.39 155.565C431.736 155.103 431.967 154.757 432.198 154.296C432.429 153.835 432.545 153.374 432.66 152.913C432.66 152.682 432.66 152.451 432.66 152.221C432.66 152.106 432.545 151.99 432.545 151.99C432.545 151.875 432.429 151.76 432.314 151.76C432.198 151.644 432.198 151.644 432.083 151.529L431.852 151.298C431.736 151.183 431.621 151.183 431.505 151.183L431.159 151.068L430.927 150.953V150.722C430.581 149.454 430.465 148.301 430.35 147.032C430.234 146.456 430.234 145.764 430.35 145.188C430.35 144.496 430.465 143.919 430.696 143.228C430.812 142.882 431.043 142.536 431.39 142.305C431.736 142.075 432.198 141.844 432.545 141.959C433.007 141.959 433.238 142.075 433.585 142.19C433.931 142.305 434.278 142.421 434.509 142.651C434.74 142.882 435.087 143.112 435.202 143.343C435.433 143.574 435.549 143.919 435.664 144.15C435.895 144.726 436.011 145.418 435.895 145.995C435.78 145.418 435.664 144.842 435.318 144.265C435.202 144.035 434.971 143.804 434.74 143.573C434.509 143.343 434.278 143.228 434.047 143.112C433.816 142.997 433.585 142.882 433.238 142.882C433.007 142.882 432.66 142.766 432.429 142.766C431.967 142.766 431.736 143.112 431.621 143.573C431.274 144.611 431.39 145.764 431.39 146.917C431.505 148.07 431.621 149.338 431.852 150.491L431.621 150.146L431.967 150.376C432.083 150.491 432.198 150.491 432.314 150.607L432.66 150.837C432.776 150.953 432.891 151.068 433.007 151.183C433.123 151.299 433.238 151.414 433.238 151.644C433.354 151.76 433.354 151.99 433.354 152.106C433.469 152.451 433.354 152.682 433.354 153.028C433.238 153.604 432.891 154.066 432.545 154.527C432.198 154.873 431.736 155.334 431.39 155.565Z" fill="#76413B"/>
<path d="M393.034 160.407C392.456 160.522 391.994 160.522 391.532 160.522C391.07 160.522 390.608 160.407 390.261 160.292C389.799 160.176 389.452 159.946 389.106 159.831C388.875 159.715 388.759 159.6 388.528 159.485C388.297 159.369 388.182 159.254 387.951 159.139L387.257 158.562L387.373 158.101C388.528 154.757 389.683 151.529 390.839 148.301C391.994 145.072 393.265 141.729 394.536 138.5C393.727 141.844 392.803 145.303 391.994 148.647C391.07 151.99 390.146 155.334 389.221 158.678L388.759 157.64C388.99 157.64 389.221 157.755 389.452 157.755C389.683 157.755 389.915 157.87 390.03 157.986C390.377 158.101 390.839 158.332 391.185 158.562C391.532 158.793 391.879 159.139 392.225 159.485C392.456 159.6 392.803 159.946 393.034 160.407Z" fill="#76413B"/>
<path d="M399.85 132.505C399.85 132.505 399.966 132.159 400.312 131.813C400.543 131.582 400.659 131.352 401.005 131.006C401.352 130.775 401.583 130.429 402.045 130.199C402.392 129.968 402.854 129.622 403.431 129.392C403.894 129.161 404.471 128.931 405.049 128.7C405.627 128.585 406.32 128.354 407.013 128.354C407.36 128.354 407.706 128.354 408.053 128.354L409.092 128.469C409.786 128.469 410.479 128.815 411.056 128.931C411.634 129.161 412.212 129.507 412.789 129.738C413.367 130.084 413.829 130.429 414.176 130.775C414.638 131.121 414.984 131.582 415.216 131.928C415.562 132.274 415.793 132.62 416.024 132.966C416.255 133.312 416.371 133.658 416.486 133.888C416.717 134.35 416.833 134.696 416.833 134.696C416.833 134.696 416.486 134.58 416.024 134.35C415.793 134.234 415.447 134.119 415.1 133.888C414.753 133.658 414.407 133.543 413.945 133.427C413.598 133.312 413.136 133.081 412.674 132.851C412.212 132.735 411.75 132.505 411.288 132.39C410.825 132.274 410.363 132.159 409.901 132.044C409.439 132.044 408.977 131.813 408.399 131.813L407.706 131.698H407.013C406.551 131.698 405.973 131.698 405.511 131.698C405.049 131.698 404.587 131.698 404.125 131.813C403.663 131.813 403.2 131.928 402.738 131.928C401.93 132.044 401.121 132.159 400.659 132.274C400.197 132.505 399.85 132.505 399.85 132.505Z" fill="#051F38"/>
<path d="M383.907 526.825C383.907 530.976 380.557 534.435 376.398 534.55C372.239 534.55 368.773 531.207 368.657 527.056L368.311 502.613C368.311 498.462 371.661 495.003 375.82 494.888C379.979 494.888 383.445 498.231 383.56 502.382L383.907 526.825Z" fill="#091E1D"/>
<path d="M277.504 528.095C277.504 532.245 274.154 535.704 269.995 535.82C265.836 535.82 262.37 532.476 262.254 528.325L261.908 503.882C261.908 499.731 265.258 496.272 269.417 496.157C273.576 496.157 277.042 499.501 277.158 503.651L277.504 528.095Z" fill="#091E1D"/>
<path d="M375.358 509.415C375.473 518.87 367.848 526.595 358.375 526.71L287.209 527.517C277.735 527.633 269.995 520.023 269.879 510.568L262.254 348.92C262.139 339.466 269.764 331.741 279.237 331.625L361.841 330.588C371.314 330.472 379.055 338.082 379.17 347.536L375.358 509.415Z" fill="#34CB79"/>
<path opacity="0.1" d="M378.708 363.793L379.055 347.767C378.939 338.313 371.199 330.703 361.725 330.818L279.121 331.856C269.648 331.971 262.023 339.696 262.139 349.151L262.947 365.177L378.708 363.793Z" fill="#161826"/>
<path d="M392.803 343.732C392.803 346.383 390.723 348.459 388.066 348.574L253.127 350.188C250.47 350.188 248.391 348.113 248.275 345.461L248.044 328.397C248.044 325.745 250.123 323.67 252.781 323.554L387.719 321.94C390.377 321.94 392.456 324.016 392.572 326.667L392.803 343.732Z" fill="#34CB79"/>
<path d="M321.174 391.119L336.886 381.665L333.074 391.465L321.174 391.119Z" fill="white"/>
<path d="M315.283 376.246C315.283 376.246 316.554 376.246 318.518 379.243C320.482 382.241 324.872 390.312 324.872 390.312L332.843 386.738L334.692 383.625C334.692 383.625 331.226 376.707 328.453 376.246H315.283Z" fill="white"/>
<path d="M310.892 378.321C310.892 378.321 313.318 375.669 315.282 377.053C317.246 378.437 320.712 384.202 320.712 384.202L315.051 394.117L304.885 388.468L310.892 378.321Z" fill="white"/>
<path d="M328.338 403.456L329.146 421.673L322.33 413.718L328.338 403.456Z" fill="white"/>
<path d="M344.281 405.301C344.281 405.301 343.703 406.454 340.121 406.8C336.54 407.146 327.298 407.146 327.298 407.146L326.604 415.908L328.453 419.021C328.453 419.021 336.193 419.367 337.926 417.061L344.281 405.301Z" fill="white"/>
<path d="M344.396 400.458C344.396 400.458 345.667 403.802 343.472 404.955C341.392 405.993 334.576 406.223 334.576 406.223L328.453 396.538L338.273 390.197L344.396 400.458Z" fill="white"/>
<path d="M314.472 403.226L298.298 394.693L308.696 392.849L314.472 403.226Z" fill="white"/>
<path d="M304.885 416.024C304.885 416.024 304.192 414.986 305.694 411.758C307.195 408.529 311.817 400.574 311.817 400.574L304.654 395.616L301.072 395.731C301.072 395.731 296.913 402.303 297.953 404.84L304.885 416.024Z" fill="white"/>
<path d="M308.928 418.56C308.928 418.56 305.347 417.868 305.578 415.562C305.694 413.141 308.928 407.261 308.928 407.261L320.366 406.915L320.828 418.56H308.928Z" fill="white"/>
<path d="M73.247 481.167C73.247 481.167 70.706 521.868 68.511 522.675C60.077 525.557 -3.58001 541.699 56.611 514.604L54.994 484.972L73.247 481.167Z" fill="#051F38"/>
<path d="M70.59 512.759C72.092 500.422 73.247 481.167 73.247 481.167L54.994 484.972L56.496 511.376C61.001 512.644 66.2 512.759 70.59 512.759Z" fill="#041523"/>
<path d="M31.079 528.786C29.231 533.282 62.503 524.75 68.511 522.675C68.626 522.56 68.857 522.329 69.088 521.752C61.579 523.828 38.82 529.016 31.079 528.786Z" fill="white"/>
<path d="M112.181 478.977C112.181 478.977 115.532 519.677 117.842 520.369C126.391 523.136 190.279 538.01 129.511 512.067L130.55 482.436L112.181 478.977Z" fill="#051F38"/>
<path d="M115.532 510.453C113.799 498.232 112.181 478.977 112.181 478.977L130.55 482.436L129.626 508.839C125.12 510.223 119.922 510.338 115.532 510.453Z" fill="#041523"/>
<path d="M155.389 525.788C157.353 530.284 123.85 522.329 117.842 520.369C117.611 520.369 117.496 520.023 117.265 519.446C124.774 521.522 147.649 526.249 155.389 525.788Z" fill="white"/>
<path d="M123.387 259.218C123.387 259.218 140.023 393.31 136.673 501.806C136.673 501.806 116.802 507.34 111.603 503.305C107.097 477.593 107.675 427.554 100.974 390.427C94.62 355.377 92.079 326.667 92.079 326.667L89.999 324.361C89.999 324.361 76.366 493.85 73.363 506.764C56.149 510.799 50.719 506.072 50.719 506.072C50.719 506.072 42.863 294.038 47.715 259.794C53.954 215.059 123.387 259.218 123.387 259.218Z" fill="#34CB79"/>
<path opacity="0.1" d="M126.39 287.004C124.657 269.709 123.27 259.333 123.27 259.333C123.27 259.333 53.953 215.173 47.598 259.909C47.021 264.06 46.674 270.862 46.328 279.51C51.526 282.392 116.454 291.616 126.39 287.004Z" fill="#161826"/>
<path opacity="0.1" d="M90.808 322.978C91.616 332.086 95.775 361.488 100.974 390.427C107.675 427.669 107.097 477.593 111.603 503.305C116.802 507.34 136.673 501.806 136.673 501.806C138.637 435.048 133.207 358.605 128.586 309.719C117.611 316.636 103.631 319.98 90.808 322.978Z" fill="#161826"/>
<path d="M96.7 141.959C96.815 127.893 97.855 109.33 97.855 109.33L70.128 101.72C70.128 101.72 71.052 126.855 71.861 142.19C59.268 146.456 44.942 154.527 44.942 154.527L97.277 167.786L115.878 149.8C115.878 149.8 106.52 145.072 96.7 141.959Z" fill="#FFB39F"/>
<path d="M96.7 141.959C96.815 127.893 97.855 109.33 97.855 109.33L70.128 101.72C70.128 101.72 71.052 126.855 71.861 142.19C59.268 146.456 44.942 154.527 44.942 154.527L97.277 167.786L122.001 146.571C122.001 146.571 106.635 140.806 96.7 141.959Z" fill="#E09B8D"/>
<path d="M67.702 75.0864C67.702 75.0864 74.9799 51.5655 94.1579 55.2551C113.336 58.9446 116.109 83.9644 118.535 100.798C120.961 117.747 115.531 132.966 100.512 134.811C87.457 136.425 64.698 133.889 67.702 75.0864Z" fill="#FFB39F"/>
<path d="M68.626 94.8021C68.626 94.8021 67.471 91.6891 62.734 95.148C56.726 99.5294 62.849 115.671 70.128 113.942C77.406 112.212 68.626 94.8021 68.626 94.8021Z" fill="#FFB39F"/>
<path d="M61.925 61.5963C62.387 61.481 71.399 60.7892 65.391 61.3657C70.936 67.3612 70.3591 68.8601 77.9841 70.2436C82.0271 82.6959 74.056 90.1903 74.056 90.1903L76.251 105.179L70.474 105.756C70.474 105.756 70.5901 95.3787 66.2001 94.4563C61.8101 93.5339 60.539 98.8377 60.539 98.8377C51.412 87.3078 42.169 64.7093 61.925 61.5963Z" fill="#051F38"/>
<path d="M114.26 53.1795C117.957 44.0709 111.719 36 111.719 36C112.758 39.3437 112.296 42.4567 111.256 44.9933C110.563 42.4567 109.292 39.6896 106.982 36.9224C106.982 36.9224 107.675 46.1463 95.0821 44.9933C82.4891 43.8403 60.4231 45.5698 59.4991 65.0552C58.4591 84.5407 77.2911 70.3589 77.2911 70.3589C77.2911 70.3589 114.838 80.8511 120.268 50.6429L114.26 53.1795Z" fill="#051F38"/>
<path d="M96.469 86.8476C96.469 86.8476 96.122 86.8476 95.66 86.7323C95.082 86.617 94.389 86.5017 93.581 86.3864C93.118 86.2711 92.772 86.2711 92.31 86.2711C91.848 86.1558 91.386 86.1558 90.923 86.1558C90.461 86.1558 89.999 86.1558 89.421 86.1558C89.19 86.1558 88.959 86.1558 88.728 86.1558L88.035 86.2711C87.573 86.2711 87.111 86.3864 86.533 86.5017C86.071 86.617 85.609 86.7323 85.147 86.8476C84.685 86.9629 84.223 87.1935 83.761 87.3088C83.298 87.4241 82.952 87.6547 82.49 87.77C82.143 87.8853 81.681 88.0006 81.45 88.2312C81.103 88.3465 80.872 88.4618 80.641 88.5771C80.179 88.8077 79.833 88.923 79.833 88.923C79.833 88.923 79.948 88.5771 80.179 88.1159C80.295 87.8853 80.41 87.5394 80.641 87.1935C80.872 86.8476 81.103 86.5017 81.45 86.1558C81.797 85.8099 82.028 85.3487 82.49 85.0028C82.952 84.6569 83.414 84.311 83.992 83.9651C84.569 83.7345 85.147 83.3886 85.725 83.158C86.418 82.9274 86.995 82.8121 87.689 82.6968L88.728 82.5815C89.075 82.5815 89.422 82.5815 89.768 82.6968C90.115 82.6968 90.461 82.8121 90.692 82.8121C91.039 82.9274 91.27 82.9274 91.617 83.0427C92.194 83.2733 92.772 83.3886 93.234 83.7345C93.696 83.9651 94.158 84.311 94.62 84.5416C94.967 84.7722 95.314 85.1181 95.66 85.3487C95.891 85.5793 96.122 85.9252 96.353 86.0405C96.238 86.5017 96.469 86.8476 96.469 86.8476Z" fill="#051F38"/>
<path d="M115.993 86.27C115.993 86.27 115.762 86.1547 115.3 86.0394C114.838 85.9241 114.26 85.6935 113.682 85.4629C113.336 85.3476 112.989 85.2324 112.643 85.1171C112.296 85.0018 111.949 84.8864 111.603 84.8864C111.256 84.8864 110.91 84.7712 110.563 84.6559C110.448 84.6559 110.216 84.6559 110.101 84.5406H109.639C109.292 84.4253 108.946 84.6559 108.599 84.5406C108.252 84.6559 107.906 84.6559 107.559 84.7712C107.213 84.8865 106.866 85.0018 106.52 85.1171C106.173 85.2324 105.826 85.3476 105.595 85.4629C105.249 85.5782 104.902 85.6935 104.671 85.8088C104.44 85.9241 104.209 86.0394 103.978 86.0394C103.516 86.1547 103.285 86.27 103.285 86.27C103.285 86.27 103.285 86.0394 103.516 85.5782C103.631 85.3476 103.631 85.117 103.862 84.7712C103.978 84.4253 104.209 84.1947 104.44 83.8488C104.671 83.5029 104.902 83.157 105.249 82.8111C105.595 82.4652 106.057 82.2346 106.404 81.8887C106.866 81.6581 107.444 81.4275 107.906 81.1969C108.484 81.0816 109.061 80.9663 109.639 80.9663C109.985 80.9663 110.216 80.9663 110.563 80.9663C110.91 80.9663 111.141 81.0816 111.372 81.1969C111.603 81.1969 111.949 81.3122 112.18 81.4275C112.412 81.5428 112.643 81.6581 112.874 81.7734C113.798 82.3499 114.491 82.9264 114.953 83.6182C115.415 84.31 115.646 84.8865 115.877 85.3476C115.993 86.0394 115.993 86.27 115.993 86.27Z" fill="#051F38"/>
<path d="M101.783 87.5386C102.476 89.0375 103.17 90.6517 103.863 92.1506C104.209 92.9576 104.44 93.6494 104.787 94.4565L105.711 96.7625L106.635 99.0685C106.982 99.8756 107.213 100.567 107.56 101.374L108.022 102.527C108.137 102.873 108.368 103.334 108.484 103.68C108.831 104.372 109.177 105.064 109.524 105.871L109.87 106.793L109.177 107.139C108.137 107.601 107.098 108.177 105.942 108.638C104.903 109.099 103.747 109.561 102.592 109.906C103.516 109.099 104.44 108.408 105.365 107.716C106.289 107.024 107.329 106.332 108.253 105.64L107.906 106.909C107.444 106.217 106.982 105.41 106.52 104.718C106.058 104.026 105.711 103.219 105.365 102.412L104.787 101.259L104.325 100.106C104.094 99.2991 103.747 98.492 103.516 97.6849L102.823 95.2636C102.592 94.4565 102.476 93.6494 102.245 92.8423C102.13 90.9976 101.899 89.2681 101.783 87.5386Z" fill="#DD9078"/>
<path d="M68.279 110.598C67.817 110.367 67.355 110.022 67.009 109.56C66.662 109.214 66.2 108.753 65.969 108.177C65.853 107.946 65.738 107.6 65.738 107.254C65.738 107.139 65.738 106.909 65.738 106.793C65.738 106.678 65.853 106.447 65.853 106.332C65.969 105.986 66.2 105.756 66.431 105.525C66.546 105.41 66.662 105.294 66.777 105.179L67.124 104.948L66.893 105.294C66.893 104.026 66.893 102.758 66.777 101.605C66.662 100.337 66.546 99.0683 66.084 98.0306C65.969 97.8 65.853 97.5694 65.622 97.4541C65.507 97.3388 65.276 97.2234 65.045 97.2234C64.929 97.2234 64.813 97.2234 64.698 97.3387C64.582 97.3387 64.351 97.4541 64.236 97.4541C64.005 97.5694 63.774 97.6846 63.543 97.9152C63.312 98.1458 63.08 98.2611 62.965 98.4917C62.849 98.7223 62.618 98.9529 62.503 99.2988C62.272 99.8753 62.156 100.452 62.156 101.144C61.925 100.567 61.925 99.8754 62.041 99.1836C62.041 98.8377 62.156 98.4917 62.387 98.2611C62.503 97.9152 62.734 97.6847 62.965 97.4541L63.312 97.1081L63.774 96.7622C63.889 96.6469 64.12 96.6469 64.236 96.5316C64.351 96.4163 64.582 96.4164 64.813 96.3011C65.276 96.1858 65.738 96.301 66.084 96.6469C66.431 96.8775 66.662 97.2234 66.777 97.5693C67.124 98.2611 67.24 98.8376 67.471 99.5294C67.586 100.221 67.702 100.798 67.702 101.489C67.817 102.758 67.817 104.026 67.702 105.41V105.64L67.471 105.756C67.24 105.871 67.009 105.986 66.893 106.217C66.777 106.332 66.546 106.563 66.431 106.678C66.315 106.793 66.315 106.909 66.315 107.024C66.315 107.139 66.2 107.254 66.2 107.37C66.2 107.6 66.2 107.831 66.2 108.061C66.315 108.523 66.546 108.984 66.893 109.445C67.586 109.906 67.933 110.252 68.279 110.598Z" fill="#DD9078"/>
<path d="M86.417 97.8002C86.417 97.8002 86.533 98.0308 86.649 98.4919C86.764 98.7225 86.764 98.9531 86.88 99.1837C86.995 99.4143 87.111 99.7602 87.342 100.106C87.457 100.452 87.804 100.683 87.919 101.029C88.035 101.144 88.15 101.259 88.381 101.49C88.497 101.605 88.613 101.72 88.844 101.836C89.19 102.066 89.537 102.182 89.883 102.297C90.114 102.297 90.23 102.412 90.461 102.412C90.692 102.412 90.808 102.412 91.039 102.297L91.616 102.066L92.194 101.72C92.541 101.49 92.772 101.144 93.003 100.798C93.234 100.452 93.349 100.106 93.58 99.7602C93.696 99.4143 93.811 99.0684 93.811 98.6072C93.811 98.2613 93.811 97.9154 93.927 97.6849C93.927 97.339 93.927 97.1084 93.927 96.8778C93.927 96.4166 93.927 96.186 93.927 96.186C93.927 96.186 94.042 96.4166 94.158 96.8778C94.274 97.1084 94.274 97.339 94.389 97.6849C94.389 98.0307 94.505 98.3766 94.505 98.7225C94.505 99.0684 94.505 99.5296 94.389 99.9908C94.274 100.452 94.158 100.913 93.927 101.374C93.696 101.836 93.349 102.297 92.887 102.643L92.194 103.104C91.963 103.219 91.616 103.335 91.385 103.45C91.154 103.45 90.808 103.565 90.461 103.565C90.23 103.565 89.883 103.45 89.652 103.45C89.075 103.335 88.613 102.989 88.15 102.643C87.688 102.297 87.457 101.836 87.226 101.49C86.995 101.029 86.764 100.683 86.649 100.337C86.533 99.9908 86.417 99.6449 86.417 99.299C86.417 98.9531 86.417 98.7225 86.417 98.4919C86.417 98.0308 86.417 97.8002 86.417 97.8002Z" fill="#1F2733"/>
<path d="M107.329 94.3412C107.329 94.3412 107.444 94.5718 107.56 95.033C107.675 95.2636 107.675 95.4942 107.791 95.7248C107.906 95.9554 108.022 96.3013 108.253 96.6472C108.368 96.9931 108.715 97.2237 108.831 97.5696C108.946 97.6849 109.062 97.8002 109.293 98.0308C109.408 98.1461 109.524 98.2614 109.755 98.3767C110.101 98.6073 110.448 98.7226 110.795 98.8379C111.026 98.8379 111.141 98.9532 111.372 98.9532C111.603 98.9532 111.719 98.9532 111.95 98.8379L112.527 98.6073L113.105 98.2614C113.452 98.0308 113.683 97.6849 113.914 97.339C114.145 96.9931 114.26 96.6472 114.491 96.3013C114.607 95.9554 114.723 95.6095 114.723 95.1483C114.723 94.8024 114.723 94.4565 114.838 94.2259C114.838 93.88 114.838 93.6494 114.838 93.4188C114.838 92.9576 114.838 92.7271 114.838 92.7271C114.838 92.7271 114.954 92.9576 115.069 93.4188C115.185 93.6494 115.185 93.88 115.3 94.2259C115.3 94.5718 115.416 94.9177 115.416 95.2636C115.416 95.6095 115.416 96.0707 115.3 96.5319C115.185 96.9931 115.069 97.4543 114.838 97.9155C114.607 98.3767 114.26 98.8379 113.798 99.1838L113.105 99.645C112.874 99.7603 112.527 99.8756 112.296 99.9908C112.065 99.9908 111.719 100.106 111.372 100.106C111.141 100.106 110.795 99.9908 110.563 99.9908C109.986 99.8756 109.524 99.5297 109.062 99.1838C108.599 98.8379 108.368 98.3767 108.137 98.0308C107.906 97.5696 107.675 97.2237 107.56 96.8778C107.444 96.5319 107.329 96.186 107.329 95.8401C107.329 95.4942 107.329 95.2636 107.329 95.033C107.329 94.5718 107.329 94.3412 107.329 94.3412Z" fill="#1F2733"/>
<path d="M88.237 114.104C88.237 114.104 88.121 114.104 88.237 114.219C88.352 114.334 88.583 114.449 88.815 114.565C89.277 114.911 90.085 115.257 91.01 115.718C91.934 116.179 93.089 116.64 94.244 116.986C94.822 117.217 95.515 117.332 96.093 117.447C96.671 117.562 97.364 117.678 98.057 117.793C99.328 117.908 100.599 118.024 101.869 117.908C103.14 117.793 104.18 117.562 105.22 117.217C106.144 116.871 106.953 116.64 107.53 116.41C108.108 116.179 108.455 116.064 108.455 116.064C108.455 116.064 108.224 116.41 107.761 116.755C107.299 117.217 106.606 117.793 105.682 118.37C104.758 118.946 103.487 119.523 102.1 119.753C100.714 120.099 99.212 120.099 97.71 119.984C97.017 119.868 96.208 119.753 95.515 119.523C94.822 119.292 94.129 119.061 93.551 118.715C92.28 118.139 91.241 117.447 90.432 116.755C89.623 116.064 88.93 115.372 88.583 114.795C88.352 114.565 88.237 114.334 88.237 114.104C88.121 114.219 88.121 114.104 88.237 114.104Z" fill="#DD9078"/>
<path d="M106.289 141.613C106.289 141.613 135.865 138.5 139.677 161.099C143.49 183.813 143.143 189.923 143.143 189.923L114.261 185.657L106.289 141.613Z" fill="#6633CC"/>
<path d="M131.242 159.83C129.509 145.417 114.837 142.304 106.288 141.612C102.475 146.916 97.161 150.721 89.883 150.952C81.564 151.182 73.939 148.3 69.896 141.958C56.957 143.457 44.133 147.147 41.244 155.909C35.121 174.357 40.436 275.82 40.436 275.82C40.436 275.82 92.193 284.698 134.708 276.627C134.593 276.742 133.553 179.084 131.242 159.83Z" fill="#6633CC"/>
<path opacity="0.2" d="M38.2419 205.258C38.4729 238.695 40.437 275.936 40.437 275.936C40.437 275.936 92.194 284.814 134.709 276.743C134.709 276.743 133.9 202.606 132.167 170.784C100.859 182.429 69.5499 193.959 38.2419 205.258Z" fill="#352C38"/>
<path d="M70.127 232.007C70.127 232.007 68.972 228.664 74.286 226.473C79.601 224.282 134.362 209.985 137.828 210.447C141.293 210.908 183.693 215.981 184.386 218.287C185.079 220.593 133.668 237.196 133.668 237.196L70.127 232.007Z" fill="#E1EDFF"/>
<path d="M136.557 241.577C136.557 241.577 76.597 241.347 71.976 235.928C67.355 230.509 67.239 226.588 93.465 231.2C119.69 235.812 134.824 235.12 134.824 235.12C134.824 235.12 182.885 212.753 184.502 218.172C186.004 223.706 191.087 222.322 136.557 241.577Z" fill="#C0D5FF"/>
<path d="M184.387 218.287C182.885 212.868 134.709 235.236 134.709 235.236C134.709 235.236 134.593 235.236 134.247 235.236C135.286 237.311 136.095 239.271 137.019 241.462C191.087 222.322 186.004 223.706 184.387 218.287Z" fill="#B1C5E8"/>
<path d="M68.3941 219.67C68.3941 219.67 67.2381 216.327 72.5531 214.136C77.8671 211.945 132.628 197.648 136.094 198.11C139.56 198.571 181.959 203.644 182.653 205.95C183.346 208.256 131.935 224.859 131.935 224.859L68.3941 219.67Z" fill="#E1EDFF"/>
<path d="M134.824 229.356C134.824 229.356 74.864 229.125 70.243 223.706C65.622 218.287 65.506 214.367 91.731 218.979C117.957 223.591 133.091 222.899 133.091 222.899C133.091 222.899 181.151 200.531 182.769 205.95C184.155 211.369 189.354 209.985 134.824 229.356Z" fill="#C0D5FF"/>
<path d="M182.654 206.065C181.152 200.646 132.976 223.014 132.976 223.014C132.976 223.014 132.86 223.014 132.514 223.014C133.553 225.09 134.362 227.05 135.286 229.24C189.239 209.985 184.155 211.369 182.654 206.065Z" fill="#B1C5E8"/>
<path d="M68.163 209.639C68.163 209.639 67.123 206.757 72.206 204.797C77.29 202.837 130.318 190.269 133.668 190.73C137.019 191.192 178.032 195.688 178.725 197.648C179.418 199.608 129.625 214.367 129.625 214.367L68.163 209.639Z" fill="#E1EDFF"/>
<path d="M132.398 218.172C132.398 218.172 74.402 217.941 69.897 213.214C65.391 208.486 65.391 205.027 90.692 209.063C115.993 213.098 130.665 212.522 130.665 212.522C130.665 212.522 177.224 192.806 178.726 197.648C180.228 202.376 185.195 201.107 132.398 218.172Z" fill="#C0D5FF"/>
<path d="M178.726 197.648C177.224 192.921 130.665 212.522 130.665 212.522C130.665 212.522 130.55 212.522 130.203 212.522C131.127 214.251 132.052 216.096 132.86 217.941C185.195 201.107 180.228 202.376 178.726 197.648Z" fill="#B1C5E8"/>
<path d="M69.78 196.15C69.78 196.15 68.856 193.267 74.055 191.422C79.254 189.693 132.629 179.085 135.979 179.662C139.329 180.123 180.111 186.234 180.689 188.194C181.267 190.154 131.011 202.952 131.011 202.952L69.78 196.15Z" fill="white"/>
<path d="M133.669 207.102C133.669 207.102 75.673 204.681 71.399 199.838C67.124 194.88 67.124 191.537 92.309 196.494C117.495 201.452 132.167 201.452 132.167 201.452C132.167 201.452 179.419 183.581 180.69 188.308C182.076 193.035 187.044 191.998 133.669 207.102Z" fill="#C0D5FF"/>
<path d="M180.69 188.309C179.419 183.467 132.167 201.453 132.167 201.453C132.167 201.453 132.052 201.453 131.705 201.453C132.629 203.298 133.438 205.143 134.131 206.988C186.928 191.999 181.961 193.036 180.69 188.309Z" fill="#B1C5E8"/>
<path d="M39.6279 198.34L68.1639 191.422C68.1639 191.422 74.2869 232.93 75.9039 235.236C77.5219 237.542 125.236 239.848 125.236 239.848L139.099 240.655C139.099 240.655 80.5249 265.213 63.6579 255.298C46.5599 245.151 39.6279 198.34 39.6279 198.34Z" fill="#FFB39F"/>
<path d="M42.4009 203.298C51.1809 200.646 59.7299 197.418 68.7409 195.458C68.3949 192.921 68.1639 191.422 68.1639 191.422L39.6279 198.34C39.6279 198.34 39.9749 200.416 40.5519 203.875C41.2449 203.644 41.8229 203.413 42.4009 203.298Z" fill="#E09B8D"/>
<path d="M133.785 244.46C133.785 244.46 155.504 238.695 155.504 234.313C155.504 229.932 147.648 214.136 153.194 235.236C153.194 235.236 141.641 206.642 150.883 236.619C150.883 236.619 141.872 213.329 147.995 237.196C147.995 237.196 138.752 221.054 145.453 238.349L137.135 241.462L117.148 241.231L106.52 251.608L133.785 244.46Z" fill="#FFB39F"/>
<path d="M184.618 223.36C184.618 223.36 173.065 194.766 182.307 224.744C182.307 224.744 173.296 201.453 179.419 225.32C179.419 225.32 170.176 209.178 176.068 226.588L169.714 229.586C172.025 229.817 175.029 229.701 177.455 228.894C184.849 227.395 186.928 224.859 186.928 222.553C186.928 218.172 179.072 202.376 184.618 223.36Z" fill="#FFB39F"/>
<path d="M214.078 526.825C214.078 530.976 210.728 534.435 206.569 534.55C202.409 534.55 198.944 531.207 198.828 527.056L198.481 502.613C198.481 498.462 201.832 495.003 205.991 494.888C210.15 494.888 213.616 498.231 213.731 502.382L214.078 526.825Z" fill="#091E1D"/>
<path d="M107.675 528.095C107.675 532.245 104.325 535.704 100.166 535.82C96.007 535.82 92.541 532.476 92.425 528.325L92.079 503.882C92.079 499.731 95.429 496.272 99.588 496.157C103.747 496.157 107.213 499.501 107.329 503.651L107.675 528.095Z" fill="#091E1D"/>
<path d="M205.529 509.415C205.645 518.87 198.02 526.595 188.546 526.71L117.38 527.517C107.907 527.633 100.166 520.023 100.051 510.568L92.426 348.92C92.31 339.466 99.935 331.741 109.408 331.625L192.012 330.588C201.486 330.472 209.226 338.082 209.342 347.536L205.529 509.415Z" fill="#322153"/>
<path d="M208.879 363.793L209.226 347.767C209.111 338.313 201.37 330.703 191.897 330.818L109.293 331.856C99.819 331.971 92.194 339.696 92.31 349.151L93.119 365.177L208.879 363.793Z" fill="#1C0C3B"/>
<path d="M222.974 343.732C222.974 346.383 220.895 348.459 218.237 348.574L83.299 350.188C80.641 350.188 78.562 348.113 78.446 345.461L78.215 328.397C78.215 325.745 80.295 323.67 82.952 323.554L217.891 321.94C220.548 321.94 222.628 324.016 222.743 326.667L222.974 343.732Z" fill="#322153"/>
<path d="M151.346 391.119L167.058 381.665L163.245 391.465L151.346 391.119Z" fill="white"/>
<path d="M145.454 376.246C145.454 376.246 146.724 376.246 148.688 379.243C150.652 382.241 155.043 390.312 155.043 390.312L163.014 386.738L164.863 383.625C164.863 383.625 161.397 376.707 158.624 376.246H145.454Z" fill="white"/>
<path d="M141.064 378.321C141.064 378.321 143.49 375.669 145.454 377.053C147.418 378.437 150.884 384.202 150.884 384.202L145.223 394.117L135.056 388.468L141.064 378.321Z" fill="white"/>
<path d="M158.509 403.456L159.317 421.673L152.501 413.718L158.509 403.456Z" fill="white"/>
<path d="M174.451 405.301C174.451 405.301 173.874 406.454 170.292 406.8C166.711 407.146 157.469 407.146 157.469 407.146L156.775 415.908L158.624 419.022C158.624 419.022 166.364 419.367 168.097 417.061L174.451 405.301Z" fill="white"/>
<path d="M174.567 400.458C174.567 400.458 175.838 403.802 173.643 404.955C171.563 405.993 164.747 406.223 164.747 406.223L158.624 396.538L168.444 390.197L174.567 400.458Z" fill="white"/>
<path d="M144.76 403.226L128.585 394.694L138.868 392.849L144.76 403.226Z" fill="white"/>
<path d="M135.056 416.024C135.056 416.024 134.363 414.986 135.865 411.758C137.367 408.529 141.988 400.574 141.988 400.574L134.825 395.616L131.244 395.731C131.244 395.731 127.085 402.303 128.124 404.84L135.056 416.024Z" fill="white"/>
<path d="M139.215 418.56C139.215 418.56 135.634 417.868 135.865 415.562C135.98 413.141 139.215 407.261 139.215 407.261L150.653 406.915L151.115 418.56H139.215Z" fill="white"/>
</g>
<defs>
<clipPath id="clip0">
<rect width="510" height="580" fill="white"/>
</clipPath>
</defs>
</svg>
